# xmcd
#
# Track frame offsets:
#	150
#	15016
#	37881
#	52835
#	69065
#	91868
#	110864
#	125107
#	140982
#	150124
#	160427
#
# Disc length: 2300 seconds
#
# Revision: 0
# Processed by: cddbd v1.5.2PL0 Copyright (c) Steve Scherf et al.
# Submitted via: dBpowerAMP V4.0
#
DISCID=8108fa0b
DTITLE=Kyla Brox - Gone
DYEAR=2007
DGENRE=Blues
TTITLE0=Frustration
TTITLE1=Gone
TTITLE2=Always Looking At Me
TTITLE3=Skin
TTITLE4=One Step Too Far
TTITLE5=This Is The Life
TTITLE6=Loaded Gun
TTITLE7=More Than Me
TTITLE8=What's Left On The Table
TTITLE9=Ride On
TTITLE10=You Said You'd Be My Sunshine
EXTD=
EXTT0=
EXTT1=
EXTT2=
EXTT3=
EXTT4=
EXTT5=
EXTT6=
EXTT7=
EXTT8=
EXTT9=
EXTT10=
PLAYORDER=
